<?xml version="1.0" encoding="UTF-8" standalone="no"?>
<!-- Created with Inkscape (http://www.inkscape.org/) -->

<svg
   xmlns:dc="http://purl.org/dc/elements/1.1/"
   xmlns:cc="http://creativecommons.org/ns#"
   xmlns:rdf="http://www.w3.org/1999/02/22-rdf-syntax-ns#"
   xmlns:svg="http://www.w3.org/2000/svg"
   xmlns="http://www.w3.org/2000/svg"
   xmlns:sodipodi="http://sodipodi.sourceforge.net/DTD/sodipodi-0.dtd"
   xmlns:inkscape="http://www.inkscape.org/namespaces/inkscape"
   width="12"
   height="12"
   id="svg2"
   version="1.1"
   inkscape:version="0.48.4 r9939"
   sodipodi:docname="shop2.svg">
  <sodipodi:namedview
     id="base"
     pagecolor="#ffffff"
     bordercolor="#666666"
     borderopacity="1.0"
     inkscape:pageopacity="0.0"
     inkscape:pageshadow="2"
     inkscape:zoom="16"
     inkscape:cx="23.673438"
     inkscape:cy="7.5901113"
     inkscape:document-units="px"
     inkscape:current-layer="layer1"
     showgrid="true"
     inkscape:window-width="1920"
     inkscape:window-height="1151"
     inkscape:window-x="0"
     inkscape:window-y="25"
     inkscape:window-maximized="1"
     fit-margin-top="0"
     fit-margin-left="0"
     fit-margin-right="0"
     fit-margin-bottom="0"
     inkscape:snap-global="true">
    <inkscape:grid
       snapvisiblegridlinesonly="true"
       enabled="true"
       visible="true"
       empspacing="5"
       id="grid2994"
       type="xygrid" />
  </sodipodi:namedview>
  <defs
     id="defs4">
    <filter
       id="filter3028"
       x="0"
       y="0"
       width="1"
       height="1"
       inkscape:label="Lightness-Contrast"
       inkscape:menu="Color"
       inkscape:menu-tooltip="Increase or decrease lightness and contrast"
       color-interpolation-filters="sRGB">
      <feFlood
         id="feFlood3030"
         result="result1"
         flood-opacity="0"
         flood-color="rgb(128,128,128)" />
      <feBlend
         id="feBlend3032"
         in2="SourceGraphic"
         mode="normal"
         result="result2" />
      <feComposite
         id="feComposite3034"
         in2="SourceGraphic"
         k2="1"
         operator="arithmetic"
         result="result3" />
      <feComposite
         id="feComposite3036"
         in2="SourceGraphic"
         operator="in" />
    </filter>
    <filter
       id="filter3055"
       inkscape:label="Lightness-Contrast"
       x="0"
       y="0"
       width="1"
       height="1"
       inkscape:menu="Color"
       inkscape:menu-tooltip="Increase or decrease lightness and contrast"
       color-interpolation-filters="sRGB">
      <feColorMatrix
         id="feColorMatrix3057"
         type="saturate"
         values="0"
         result="fbSourceGraphic" />
      <feColorMatrix
         result="fbSourceGraphicAlpha"
         in="fbSourceGraphic"
         values="0 0 0 -1 0 0 0 0 -1 0 0 0 0 -1 0 0 0 0 1 0"
         id="feColorMatrix3079" />
      <feFlood
         id="feFlood3081"
         result="result1"
         flood-opacity="0"
         flood-color="rgb(128,128,128)"
         in="fbSourceGraphic" />
      <feBlend
         id="feBlend3083"
         in2="fbSourceGraphic"
         mode="normal"
         result="result2" />
      <feComposite
         id="feComposite3085"
         in2="fbSourceGraphic"
         k2="1"
         operator="arithmetic"
         result="result3" />
      <feComposite
         id="feComposite3087"
         in2="fbSourceGraphic"
         operator="in" />
    </filter>
    <inkscape:perspective
       id="perspective12"
       inkscape:persp3d-origin="290 : 193.33333 : 1"
       inkscape:vp_z="580 : 290 : 1"
       inkscape:vp_y="0 : 1000 : 0"
       inkscape:vp_x="0 : 290 : 1"
       sodipodi:type="inkscape:persp3d" />
    <inkscape:perspective
       id="perspective12-1"
       inkscape:persp3d-origin="290 : 193.33333 : 1"
       inkscape:vp_z="580 : 290 : 1"
       inkscape:vp_y="0 : 1000 : 0"
       inkscape:vp_x="0 : 290 : 1"
       sodipodi:type="inkscape:persp3d" />
    <inkscape:perspective
       sodipodi:type="inkscape:persp3d"
       inkscape:vp_x="0 : 526.18109 : 1"
       inkscape:vp_y="0 : 1000 : 0"
       inkscape:vp_z="744.09448 : 526.18109 : 1"
       inkscape:persp3d-origin="372.04724 : 350.78739 : 1"
       id="perspective2466" />
    <inkscape:perspective
       id="perspective2441"
       inkscape:persp3d-origin="290 : 193.33333 : 1"
       inkscape:vp_z="580 : 290 : 1"
       inkscape:vp_y="0 : 1000 : 0"
       inkscape:vp_x="0 : 290 : 1"
       sodipodi:type="inkscape:persp3d" />
    <filter
       id="filter3871"
       x="0"
       y="0"
       width="1"
       height="1"
       inkscape:label="Lightness-Contrast"
       inkscape:menu="Color"
       inkscape:menu-tooltip="Increase or decrease lightness and contrast"
       color-interpolation-filters="sRGB">
      <feFlood
         id="feFlood3873"
         result="result1"
         flood-opacity="0"
         flood-color="rgb(128,128,128)" />
      <feBlend
         id="feBlend3875"
         in2="SourceGraphic"
         mode="normal"
         result="result2" />
      <feComposite
         id="feComposite3877"
         in2="SourceGraphic"
         k2="1"
         operator="arithmetic"
         result="result3" />
      <feComposite
         id="feComposite3879"
         in2="SourceGraphic"
         operator="in" />
    </filter>
  </defs>
  <metadata
     id="metadata7">
    <rdf:RDF>
      <cc:Work
         rdf:about="">
        <dc:format>image/svg+xml</dc:format>
        <dc:type
           rdf:resource="http://purl.org/dc/dcmitype/StillImage" />
        <dc:title></dc:title>
      </cc:Work>
    </rdf:RDF>
  </metadata>
  <g
     transform="translate(4.8596183e-7,-1040.3622)"
     id="layer1"
     inkscape:groupmode="layer"
     inkscape:label="Layer 1">
    <path
       id="rect4334"
       d="m 3,0 6,0 c 1.662,0 3,1.338 3,3 l 0,6 c 0,1.662 -1.338,3 -3,3 L 3,12 C 1.338,12 0,10.662 0,9 L 0,3 C 0,1.338 1.338,0 3,0 z"
       style="fill:#bf40bf;fill-opacity:1;stroke:none"
       transform="translate(-4.8596183e-7,1040.3622)" />
    <g
       id="text3782"
       style="font-size:40px;font-style:normal;font-weight:normal;line-height:125%;letter-spacing:0px;word-spacing:0px;fill:#ffffff;fill-opacity:1;stroke:none;font-family:Sans" />
    <path
       inkscape:connector-curvature="0"
       id="path3000"
       d=""
       style="fill:#000000" />
    <path
       sodipodi:type="inkscape:offset"
       inkscape:radius="0.08912582"
       inkscape:original="M 6.90625 1043.0312 C 6.6747348 1043.0667 6.5 1043.1959 6.5 1043.375 C 6.5 1043.5697 6.7268698 1043.75 6.96875 1043.75 C 7.2329664 1043.75 7.3109023 1043.8088 7.5 1044.25 L 7.625 1044.5625 L 6.5 1045.1875 C 5.8836501 1045.5266 5.346048 1045.7819 5.3125 1045.7812 C 5.2789517 1045.7805 5.0562603 1045.4012 4.8125 1044.9375 C 4.4293 1044.2085 4.377261 1044.1073 4.46875 1044.0312 C 4.6187002 1043.9068 4.6039241 1043.6165 4.4375 1043.5 C 4.3168915 1043.413 4.21774 1043.414 3.625 1043.5 C 2.7307614 1043.6302 2.4828239 1043.8265 2.8125 1044.1562 C 2.9250651 1044.2695 3.0057334 1044.28 3.28125 1044.25 L 3.625 1044.2188 L 4.03125 1045 L 4.4375 1045.7812 L 4.0625 1045.5938 C 3.5321936 1045.3189 2.8089596 1045.321 2.28125 1045.5938 C 1.5162885 1045.9889 1.115996 1046.5874 1.0625 1047.4062 C 1.0006332 1048.3534 1.4313949 1049.0979 2.28125 1049.5 C 2.6161916 1049.658 2.7958219 1049.6875 3.15625 1049.6875 C 4.0398964 1049.6875 4.9167749 1049.0965 5.1875 1048.2812 C 5.3024916 1047.9351 5.3301395 1047.138 5.21875 1046.875 C 5.1845539 1046.7943 5.4521117 1046.5843 6.40625 1046.0625 C 7.0989628 1045.6837 7.719843 1045.3667 7.78125 1045.3438 C 7.8562906 1045.3155 7.942461 1045.3425 8 1045.4688 C 8.0802593 1045.6449 8.0481038 1045.6758 7.71875 1046 C 7.2408611 1046.4705 7.051014 1047.0084 7.09375 1047.6875 C 7.1451258 1048.5038 7.564471 1049.1167 8.28125 1049.4688 C 8.6219917 1049.6356 8.7702166 1049.6562 9.25 1049.6562 C 9.7254746 1049.6551 9.8553069 1049.6264 10.15625 1049.4688 C 10.530169 1049.2729 10.977136 1048.8464 11.15625 1048.5 C 11.213419 1048.3894 11.27297 1048.1515 11.3125 1047.9375 C 11.550013 1046.6512 10.556048 1045.4372 9.21875 1045.4062 L 8.78125 1045.4062 L 8.34375 1044.375 C 7.9791886 1043.5225 7.8571774 1043.3221 7.65625 1043.1875 C 7.4385956 1043.0417 7.1377652 1042.9958 6.90625 1043.0312 z M 3.1875 1046.1562 C 3.5341777 1046.1563 4.01223 1046.318 4.0625 1046.4688 C 4.0751276 1046.5067 3.8336296 1046.6878 3.5 1046.875 C 2.8303039 1047.2508 2.6921487 1047.4234 2.8125 1047.6875 C 2.9299498 1047.9453 3.1957362 1047.8939 3.875 1047.5 C 4.2055896 1047.3084 4.50048 1047.1685 4.53125 1047.1875 C 4.562019 1047.2065 4.59375 1047.3756 4.59375 1047.5625 C 4.59375 1048.0325 4.3355969 1048.4724 3.9375 1048.7188 C 3.1759416 1049.19 2.2907199 1048.9421 1.90625 1048.1562 C 1.7455369 1047.8277 1.74431 1047.7181 1.78125 1047.4062 C 1.8677099 1046.6761 2.4446399 1046.1562 3.1875 1046.1562 z M 9.3125 1046.1562 C 9.9513306 1046.0975 10.6284 1046.7999 10.625 1047.5312 C 10.622216 1048.1382 10.289491 1048.6496 9.75 1048.875 C 9.2330814 1049.0909 8.6221917 1048.966 8.21875 1048.5625 C 7.6929026 1048.0367 7.6399902 1047.1678 8.125 1046.625 C 8.2365582 1046.5005 8.358374 1046.4175 8.375 1046.4375 C 8.3916208 1046.4569 8.5086456 1046.7851 8.65625 1047.1562 C 8.8038555 1047.5274 8.96089 1047.8582 9 1047.9062 C 9.0904956 1048.0161 9.4508583 1048.0179 9.5625 1047.9062 C 9.6963747 1047.7724 9.6369488 1047.5678 9.34375 1046.8438 L 9.09375 1046.1875 L 9.3125 1046.1562 z "
       style="fill:#ffffff"
       id="path4064"
       d="m 6.90625,1042.9375 c -0.1284485,0.02 -0.2552878,0.084 -0.34375,0.1563 -0.088462,0.072 -0.15625,0.1627 -0.15625,0.2812 0,0.132 0.084736,0.2617 0.1875,0.3438 0.1027636,0.082 0.2319148,0.125 0.375,0.125 0.1254967,0 0.1625128,0.011 0.21875,0.062 0.056237,0.052 0.1253829,0.1572 0.21875,0.375 l 0.09375,0.25 -1.03125,0.5938 c -0.3068628,0.1688 -0.5981802,0.3008 -0.8125,0.4062 -0.1071599,0.053 -0.21798,0.097 -0.28125,0.125 -0.018981,0.01 -0.017255,0.025 -0.03125,0.031 -0.00195,-0 -0.028991,0 -0.03125,0 -0.00452,-0.01 0.00547,-0.023 0,-0.031 -0.027342,-0.04 -0.049162,-0.081 -0.09375,-0.1562 -0.089175,-0.1509 -0.191164,-0.3629 -0.3125,-0.5938 -0.1915828,-0.3644 -0.3296025,-0.5719 -0.375,-0.6874 -0.022699,-0.058 -5.077e-4,-0.117 0,-0.125 0.1023019,-0.085 0.1320311,-0.2183 0.125,-0.3438 -0.00703,-0.1255 -0.045561,-0.235 -0.15625,-0.3125 -0.069834,-0.05 -0.156052,-0.094 -0.28125,-0.094 -0.125198,10e-5 -0.2967297,0.019 -0.59375,0.062 -0.4522767,0.066 -0.7423038,0.1495 -0.90625,0.2813 -0.081973,0.066 -0.1384277,0.1519 -0.125,0.25 0.013428,0.098 0.066755,0.1917 0.15625,0.2813 0.062815,0.063 0.1322046,0.1085 0.21875,0.125 0.086545,0.016 0.1726988,0.015 0.3125,0 l 0.28125,-0.031 0.375,0.7187 0.28125,0.5313 -0.125,-0.062 c -0.5598655,-0.2902 -1.2866969,-0.288 -1.84375,0 -0.7863035,0.4061 -1.2260525,1.0614 -1.28125,1.9062 -0.0638184,0.9771 0.4034748,1.7722 1.28125,2.1876 0.3421906,0.1614 0.5409588,0.1874 0.90625,0.1874 0.9233858,0 1.8401956,-0.611 2.125,-1.4687 0.063277,-0.1905 0.086226,-0.4685 0.09375,-0.75 0.00716,-0.2679 -0.00144,-0.5227 -0.0625,-0.6875 6.61e-5,-2e-4 0.00658,-0.016 0,-0.031 0.026738,-0.03 0.099393,-0.063 0.1875,-0.125 0.1762142,-0.1239 0.4617699,-0.3024 0.9375,-0.5626 0.3457041,-0.189 0.6886042,-0.3708 0.9375,-0.5 0.1244479,-0.064 0.2354185,-0.1176 0.3125,-0.1562 0.077082,-0.039 0.1266531,-0.063 0.125,-0.062 0.018225,-0.01 0.015949,-0.01 0.03125,0 0.015301,0.01 0.039696,0.012 0.0625,0.062 0.018726,0.041 0.029784,0.078 0.03125,0.094 0.00147,0.015 0.013167,0.01 0,0.031 -0.026333,0.047 -0.1165485,0.1504 -0.28125,0.3125 -0.4936797,0.486 -0.7002104,1.0514 -0.65625,1.75 0.05311,0.8439 0.5088313,1.5109 1.25,1.875 0.3473063,0.17 0.5176655,0.1875 1,0.1875 0.4790235,-0 0.6311637,-0.027 0.9375,-0.1875 0.39516,-0.207 0.86931,-0.6576 1.0625,-1.0313 0.06952,-0.1344 0.115959,-0.3443 0.15625,-0.5624 0.247393,-1.3399 -0.797329,-2.6241 -2.1875,-2.6563 l -0.375,0 -0.40625,-0.9687 c -0.1827013,-0.4273 -0.3322056,-0.6945 -0.4375,-0.875 -0.1052944,-0.1806 -0.1707245,-0.2698 -0.28125,-0.3438 -0.242017,-0.1621 -0.5582031,-0.2264 -0.8125,-0.1875 z M 3.1875,1046.25 c 0.1594938,0 0.3715149,0.038 0.53125,0.094 0.079868,0.028 0.1385827,0.063 0.1875,0.094 0.024459,0.015 0.019354,0.019 0.03125,0.031 -0.021775,0.019 -0.055163,0.034 -0.09375,0.062 -0.096467,0.071 -0.2108782,0.1892 -0.375,0.2813 -0.3376453,0.1895 -0.5684441,0.3267 -0.6875,0.4687 -0.059528,0.071 -0.085037,0.1394 -0.09375,0.2188 -0.00871,0.079 -0.00303,0.1435 0.03125,0.2188 0.035084,0.077 0.1135505,0.1515 0.1875,0.1874 0.073949,0.036 0.1552404,0.048 0.25,0.031 0.1895192,-0.034 0.4074595,-0.1764 0.75,-0.375 0.16349,-0.095 0.3217355,-0.1637 0.4375,-0.2187 0.057882,-0.028 0.1238671,-0.051 0.15625,-0.063 0.0023,0.01 -0.00214,0.019 0,0.031 0.010696,0.062 0,0.1616 0,0.25 0,0.4374 -0.2526063,0.8633 -0.625,1.0937 -0.7233851,0.4476 -1.5110098,0.2128 -1.875,-0.5312 -0.1573528,-0.3216 -0.1616261,-0.4095 -0.125,-0.7188 0.081596,-0.689 0.6112238,-1.1562 1.3125,-1.1562 z m 6.03125,0 0.09375,0 c 0.2843028,-0.026 0.6094878,0.099 0.84375,0.3438 0.234262,0.2446 0.376572,0.5994 0.375,0.9374 -0.0026,0.5747 -0.305228,1.0381 -0.8125,1.25 -0.482596,0.2016 -1.0593628,0.097 -1.4375,-0.2812 -0.4932448,-0.4932 -0.5451267,-1.3073 -0.09375,-1.8125 0.051589,-0.058 0.1161474,-0.096 0.15625,-0.125 0.013506,0.035 0.012385,0.075 0.03125,0.125 0.049735,0.1307 0.1133525,0.3136 0.1875,0.5 0.074454,0.1872 0.1553669,0.3632 0.21875,0.5 0.031692,0.068 0.070331,0.1422 0.09375,0.1875 0.023419,0.045 0.039506,0.065 0.0625,0.094 0.081998,0.099 0.2141222,0.1247 0.34375,0.125 0.1296278,2e-4 0.2538648,-0.035 0.34375,-0.125 0.043834,-0.044 0.082095,-0.09 0.09375,-0.1563 0.011655,-0.066 -0.012437,-0.1643 -0.03125,-0.25 -0.037626,-0.1714 -0.1030906,-0.3872 -0.25,-0.75 L 9.21875,1046.25 z" />
  </g>
</svg>
