<?xml version="1.0" encoding="UTF-8" standalone="no"?>
<!-- Created with Inkscape (http://www.inkscape.org/) -->

<svg
   xmlns:dc="http://purl.org/dc/elements/1.1/"
   xmlns:cc="http://creativecommons.org/ns#"
   xmlns:rdf="http://www.w3.org/1999/02/22-rdf-syntax-ns#"
   xmlns:svg="http://www.w3.org/2000/svg"
   xmlns="http://www.w3.org/2000/svg"
   xmlns:sodipodi="http://sodipodi.sourceforge.net/DTD/sodipodi-0.dtd"
   xmlns:inkscape="http://www.inkscape.org/namespaces/inkscape"
   width="12"
   height="12"
   id="svg2"
   version="1.1"
   inkscape:version="0.91 r13725"
   sodipodi:docname="bus_stop.svg">
  <sodipodi:namedview
     id="base"
     pagecolor="#ffffff"
     bordercolor="#666666"
     borderopacity="1.0"
     inkscape:pageopacity="0.0"
     inkscape:pageshadow="2"
     inkscape:zoom="31.678384"
     inkscape:cx="2.9665407"
     inkscape:cy="11.222589"
     inkscape:document-units="px"
     inkscape:current-layer="layer1"
     showgrid="true"
     inkscape:window-width="1920"
     inkscape:window-height="1151"
     inkscape:window-x="0"
     inkscape:window-y="25"
     inkscape:window-maximized="1"
     fit-margin-top="0"
     fit-margin-left="0"
     fit-margin-right="0"
     fit-margin-bottom="0"
     inkscape:snap-global="true">
    <inkscape:grid
       snapvisiblegridlinesonly="true"
       enabled="true"
       visible="true"
       empspacing="5"
       id="grid2994"
       type="xygrid" />
  </sodipodi:namedview>
  <defs
     id="defs4" />
  <metadata
     id="metadata7">
    <rdf:RDF>
      <cc:Work
         rdf:about="">
        <dc:format>image/svg+xml</dc:format>
        <dc:type
           rdf:resource="http://purl.org/dc/dcmitype/StillImage" />
        <dc:title></dc:title>
      </cc:Work>
    </rdf:RDF>
  </metadata>
  <g
     transform="translate(4.8596183e-7,-1040.3622)"
     id="layer1"
     inkscape:groupmode="layer"
     inkscape:label="Layer 1">
    <g
       id="text3782"
       style="font-size:40px;font-style:normal;font-weight:normal;line-height:125%;letter-spacing:0px;word-spacing:0px;fill:#ffffff;fill-opacity:1;stroke:none;font-family:Sans" />
    <path
       inkscape:connector-curvature="0"
       id="path3000"
       d=""
       style="fill:#000000" />
    <g
       id="g3431"
       transform="matrix(0.03638867,0,0,-0.03638867,-2.5887267,1054.9509)">
      <path
         inkscape:connector-curvature="0"
         d="m 400.914,236.029 c 0,-91.055 -73.832,-164.887 -164.887,-164.887 -91.066,0 -164.886,73.832 -164.886,164.887 0,91.066 73.82,164.886 164.886,164.886 91.055,0 164.887,-73.82 164.887,-164.886"
         style="fill:#008754;fill-opacity:1;fill-rule:nonzero;stroke:none"
         id="path3439" />
      <path
         inkscape:connector-curvature="0"
         d="m 357.512,236.029 c 0,-67.102 -54.395,-121.481 -121.485,-121.481 -67.097,0 -121.492,54.379 -121.492,121.481 0,67.109 54.395,121.507 121.492,121.507 67.09,0 121.485,-54.398 121.485,-121.507"
         style="fill:#f0c900;fill-opacity:1;fill-rule:nonzero;stroke:none"
         id="path3441" />
      <path
         inkscape:connector-curvature="0"
         d="m 171.973,146.364 0,179.348 27.218,0 0,-76.859 73.661,0 0,76.859 27.218,0 0,-179.348 -27.218,0 0,78.457 -73.661,0 0,-78.457"
         style="fill:#008754;fill-opacity:1;fill-rule:nonzero;stroke:none"
         id="path3443" />
    </g>
  </g>
</svg>
