<?xml version="1.0" encoding="UTF-8" standalone="no"?>
<!-- Created with Inkscape (http://www.inkscape.org/) -->

<svg
   xmlns:dc="http://purl.org/dc/elements/1.1/"
   xmlns:cc="http://creativecommons.org/ns#"
   xmlns:rdf="http://www.w3.org/1999/02/22-rdf-syntax-ns#"
   xmlns:svg="http://www.w3.org/2000/svg"
   xmlns="http://www.w3.org/2000/svg"
   xmlns:sodipodi="http://sodipodi.sourceforge.net/DTD/sodipodi-0.dtd"
   xmlns:inkscape="http://www.inkscape.org/namespaces/inkscape"
   width="12"
   height="12"
   id="svg2"
   version="1.1"
   inkscape:version="0.91 r13725"
   sodipodi:docname="camping_site.svg">
  <defs
     id="defs4" />
  <sodipodi:namedview
     id="base"
     pagecolor="#ffffff"
     bordercolor="#666666"
     borderopacity="1.0"
     inkscape:pageopacity="0.0"
     inkscape:pageshadow="2"
     inkscape:zoom="22.4"
     inkscape:cx="20.76071"
     inkscape:cy="13.157361"
     inkscape:document-units="px"
     inkscape:current-layer="layer1"
     showgrid="true"
     inkscape:window-width="1920"
     inkscape:window-height="1151"
     inkscape:window-x="0"
     inkscape:window-y="25"
     inkscape:window-maximized="1"
     fit-margin-top="0"
     fit-margin-left="0"
     fit-margin-right="0"
     fit-margin-bottom="0"
     inkscape:snap-global="true">
    <inkscape:grid
       type="xygrid"
       id="grid2994"
       empspacing="5"
       visible="true"
       enabled="true"
       snapvisiblegridlinesonly="true" />
  </sodipodi:namedview>
  <metadata
     id="metadata7">
    <rdf:RDF>
      <cc:Work
         rdf:about="">
        <dc:format>image/svg+xml</dc:format>
        <dc:type
           rdf:resource="http://purl.org/dc/dcmitype/StillImage" />
        <dc:title></dc:title>
      </cc:Work>
    </rdf:RDF>
  </metadata>
  <g
     inkscape:label="Layer 1"
     inkscape:groupmode="layer"
     id="layer1"
     transform="translate(4.8596183e-7,-1040.3622)">
    <path
       style="fill:#0092da;fill-opacity:1;stroke:none"
       d="m 3.0446424,1040.3622 6,0 c 1.6619996,0 2.9999996,1.338 2.9999996,3 l 0,6 c 0,1.662 -1.338,3 -2.9999996,3 l -6,0 c -1.662,0 -3.00000003,-1.338 -3.00000003,-3 l 0,-6 c 0,-1.662 1.33800003,-3 3.00000003,-3 z"
       id="rect4334"
       inkscape:connector-curvature="0" />
    <g
       style="font-size:40px;font-style:normal;font-weight:normal;line-height:125%;letter-spacing:0px;word-spacing:0px;fill:#ffffff;fill-opacity:1;stroke:none;font-family:Sans"
       id="text3782" />
    <path
       style="fill:#ffffff;fill-opacity:1"
       d="m 1.0714589,1051.2996 c 0.1655494,-0.2629 4.1648744,-7.0133 4.1976691,-7.0853 0.033185,-0.073 -0.044172,-0.2307 -0.5198705,-1.0608 -0.3329781,-0.5811 -0.5669417,-1.033 -0.5788604,-1.118 -0.075654,-0.5397 0.5885697,-0.913 1.0033879,-0.5639 0.062311,0.053 0.279328,0.387 0.4822595,0.7434 0.2029315,0.3565 0.377803,0.6481 0.3886033,0.6481 0.0108,-10e-5 0.1848895,-0.2911 0.3868651,-0.6467 0.2019755,-0.3556 0.4189921,-0.6902 0.4822598,-0.7433 0.4164268,-0.3505 1.0804393,0.021 1.0053326,0.5624 -0.01188,0.086 -0.2435371,0.5321 -0.5794188,1.1168 -0.4789597,0.8336 -0.5539486,0.9864 -0.5202568,1.0603 0.033415,0.073 4.0375163,6.8325 4.1982453,7.087 l 0.05582,0.089 -1.5744663,0 -1.5744652,0 -0.9301424,-1.884 c -0.511578,-1.0362 -0.9389787,-1.8839 -0.949779,-1.8839 -0.0108,0 -0.438201,0.8477 -0.949779,1.8839 l -0.9301426,1.884 -1.5744656,0 -1.5744654,0 0.055664,-0.089 z"
       id="path4780"
       inkscape:connector-curvature="0" />
  </g>
</svg>
