<?xml version="1.0" encoding="UTF-8" standalone="no"?>
<!-- Created with Inkscape (http://www.inkscape.org/) -->

<svg
   xmlns:dc="http://purl.org/dc/elements/1.1/"
   xmlns:cc="http://creativecommons.org/ns#"
   xmlns:rdf="http://www.w3.org/1999/02/22-rdf-syntax-ns#"
   xmlns:svg="http://www.w3.org/2000/svg"
   xmlns="http://www.w3.org/2000/svg"
   xmlns:sodipodi="http://sodipodi.sourceforge.net/DTD/sodipodi-0.dtd"
   xmlns:inkscape="http://www.inkscape.org/namespaces/inkscape"
   width="12"
   height="12"
   id="svg2"
   version="1.1"
   inkscape:version="0.91 r13725"
   sodipodi:docname="caravan_site.svg">
  <defs
     id="defs4" />
  <sodipodi:namedview
     id="base"
     pagecolor="#ffffff"
     bordercolor="#666666"
     borderopacity="1.0"
     inkscape:pageopacity="0.0"
     inkscape:pageshadow="2"
     inkscape:zoom="44.8"
     inkscape:cx="1.7709414"
     inkscape:cy="3.5924181"
     inkscape:document-units="px"
     inkscape:current-layer="layer1"
     showgrid="true"
     inkscape:window-width="1920"
     inkscape:window-height="1151"
     inkscape:window-x="0"
     inkscape:window-y="25"
     inkscape:window-maximized="1"
     fit-margin-top="0"
     fit-margin-left="0"
     fit-margin-right="0"
     fit-margin-bottom="0"
     inkscape:snap-global="true">
    <inkscape:grid
       type="xygrid"
       id="grid2994"
       empspacing="5"
       visible="true"
       enabled="true"
       snapvisiblegridlinesonly="true" />
  </sodipodi:namedview>
  <metadata
     id="metadata7">
    <rdf:RDF>
      <cc:Work
         rdf:about="">
        <dc:format>image/svg+xml</dc:format>
        <dc:type
           rdf:resource="http://purl.org/dc/dcmitype/StillImage" />
        <dc:title />
      </cc:Work>
    </rdf:RDF>
  </metadata>
  <g
     inkscape:label="Layer 1"
     inkscape:groupmode="layer"
     id="layer1"
     transform="translate(4.8596183e-7,-1040.3622)">
    <path
       style="fill:#0092da;fill-opacity:1;stroke:none"
       d="m 3.0446424,1040.3622 6,0 c 1.6619996,0 2.9999996,1.338 2.9999996,3 l 0,6 c 0,1.662 -1.338,3 -2.9999996,3 l -6,0 c -1.662,0 -3.00000003,-1.338 -3.00000003,-3 l 0,-6 c 0,-1.662 1.33800003,-3 3.00000003,-3 z"
       id="rect4334"
       inkscape:connector-curvature="0" />
    <g
       style="font-size:40px;font-style:normal;font-weight:normal;line-height:125%;letter-spacing:0px;word-spacing:0px;fill:#ffffff;fill-opacity:1;stroke:none;font-family:Sans"
       id="text3782" />
    <path
       style="fill:#ffffff;fill-opacity:1"
       d="m 3.7035039,1049.5213 c -0.2387624,-0.078 -0.4262766,-0.2438 -0.5331671,-0.4718 -0.051482,-0.1098 -0.060689,-0.1609 -0.060689,-0.3367 0,-0.2726 0.071898,-0.4394 0.267526,-0.6206 0.359758,-0.333 0.9024569,-0.2963 1.2271854,0.083 0.1229426,0.1437 0.181335,0.3165 0.182887,0.5411 0.00118,0.1717 -0.00605,0.2027 -0.084558,0.3615 -0.1484159,0.3003 -0.3868173,0.4558 -0.7178961,0.4683 -0.1126479,0.01 -0.2219523,-0.01 -0.2812889,-0.025 z m 0.4402922,-0.5679 c 0.1953271,-0.1714 0.1506837,-0.4494 -0.086762,-0.54 -0.2131503,-0.081 -0.4292078,0.069 -0.4292078,0.299 0,0.183 0.1347227,0.3111 0.3273777,0.3112 0.088283,10e-5 0.1235535,-0.013 0.1885924,-0.071 z m 5.3171854,0.5565 c -0.1739268,-0.065 -0.3192981,-0.178 -0.4185389,-0.3266 -0.116458,-0.1744 -0.148763,-0.3007 -0.1365361,-0.5335 0.00839,-0.1604 0.022078,-0.213 0.086949,-0.3347 0.088303,-0.1657 0.2005598,-0.2757 0.3744037,-0.3671 0.1105782,-0.058 0.1438974,-0.064 0.3635515,-0.064 0.214134,-10e-5 0.2568354,0.01 0.3730073,0.062 0.167355,0.078 0.327651,0.2388 0.406096,0.4061 0.05407,0.1153 0.06139,0.159 0.06066,0.3615 -0.001,0.2778 -0.04308,0.3887 -0.217169,0.5727 -0.167334,0.177 -0.331297,0.2512 -0.5765286,0.261 -0.1514151,0.01 -0.2229667,0 -0.3158853,-0.037 z m 0.433197,-0.5219 c 0.098243,-0.051 0.1588595,-0.1619 0.1589625,-0.2917 2.31e-4,-0.278 -0.3427286,-0.4093 -0.5377765,-0.2057 -0.2512726,0.2623 0.055252,0.6648 0.378814,0.4974 z m -8.94936056,-0.4464 c -0.17557338,-0.043 -0.31281003,-0.1653 -0.35746638,-0.3192 -0.01706,-0.059 -0.0226205,-0.716 -0.0178865,-2.1138 l 0.006873,-2.0285 0.0665927,-0.088 c 0.0366262,-0.048 0.11435237,-0.1093 0.17272583,-0.1363 0.1053054,-0.049 0.12284471,-0.05 2.24793401,-0.06 l 2.1418004,-0.012 0.1727259,-0.073 c 0.094999,-0.04 0.2758534,-0.1215 0.4018984,-0.1808 0.126045,-0.059 0.3488613,-0.1476 0.4951474,-0.1963 0.4467342,-0.1485 0.5908122,-0.1602 1.9758995,-0.1602 1.3231041,0 1.4588796,0.01 1.7729838,0.1277 0.50693,0.1903 0.91365,0.6181 0.96298,1.013 0.03202,0.2562 -0.121841,0.4637 -0.415404,0.5601 -0.148186,0.049 -0.177787,0.05 -1.6588668,0.05 l -1.5079884,0 0,1.8194 0,1.8194 -1.1477299,0 -1.1477299,0 -0.039996,-0.1439 c -0.086102,-0.3097 -0.3053754,-0.5878 -0.5805028,-0.7363 -0.6551203,-0.3535 -1.5009515,0.031 -1.6725045,0.7593 l -0.02846,0.1209 -0.8869668,0 c -0.4878316,0 -0.91805736,-0.011 -0.95605702,-0.019 z m 5.37789046,-2.2782 c 0.044135,-0.023 0.1033937,-0.083 0.131685,-0.1324 0.047961,-0.084 0.051462,-0.1177 0.051782,-0.5042 3.869e-4,-0.4664 -0.016208,-0.5321 -0.1584444,-0.6271 -0.07803,-0.053 -0.080825,-0.053 -0.9787798,-0.053 -0.8579631,0 -0.9040738,0 -0.9755846,0.046 -0.041282,0.026 -0.095987,0.079 -0.1215672,0.1209 -0.043157,0.07 -0.046047,0.1073 -0.040092,0.5241 0.00602,0.4214 0.00956,0.4535 0.057501,0.5207 0.1034347,0.145 0.1112279,0.146 1.0777499,0.1466 0.8089242,6e-4 0.8816061,0 0.9557496,-0.042 z m -4.0633506,-0.262 0.078782,-0.086 0,-0.3814 c 0,-0.5826 -0.00384,-0.5865 -0.5757527,-0.5865 -0.5704103,0 -0.5757528,0.01 -0.5757528,0.5768 0,0.5679 0.010336,0.5778 0.5948488,0.5691 l 0.3990929,-0.01 0.078781,-0.086 z m 5.4678279,0.904 0,-1.6586 0.9960525,0 0.9960521,0 0.091544,0.1196 c 0.3514277,0.4592 1.2930757,1.7208 1.4041977,1.8814 0.288048,0.4163 0.351501,0.6128 0.278768,0.8629 -0.06611,0.2275 -0.285091,0.4178 -0.496709,0.4319 l -0.09695,0.01 -0.03133,-0.1203 c -0.134819,-0.5178 -0.599051,-0.8808 -1.1264919,-0.8808 -0.3191026,0 -0.590665,0.1139 -0.8179224,0.3431 -0.1613025,0.1628 -0.2668134,0.3461 -0.3102589,0.5391 l -0.026768,0.1189 -0.4300916,0.01 -0.4300914,0.01 0,-1.6588 z m 2.1035955,-0.025 c 0.033069,-0.026 0.071754,-0.086 0.085967,-0.1336 0.035253,-0.1177 0.0081,-0.1739 -0.2759593,-0.5734 l -0.233428,-0.3282 -0.5291791,0 -0.5291795,0 0,0.5412 0,0.5413 0.710828,0 c 0.682146,0 0.7132536,0 0.7709545,-0.047 z"
       id="path4767"
       inkscape:connector-curvature="0" />
  </g>
</svg>
