<?xml version="1.0" encoding="UTF-8" standalone="no"?>
<!-- Created with Inkscape (http://www.inkscape.org/) -->

<svg
   xmlns:dc="http://purl.org/dc/elements/1.1/"
   xmlns:cc="http://creativecommons.org/ns#"
   xmlns:rdf="http://www.w3.org/1999/02/22-rdf-syntax-ns#"
   xmlns:svg="http://www.w3.org/2000/svg"
   xmlns="http://www.w3.org/2000/svg"
   xmlns:sodipodi="http://sodipodi.sourceforge.net/DTD/sodipodi-0.dtd"
   xmlns:inkscape="http://www.inkscape.org/namespaces/inkscape"
   width="12"
   height="12"
   id="svg2"
   version="1.1"
   inkscape:version="0.48.4 r9939"
   sodipodi:docname="climbing.svg">
  <defs
     id="defs4" />
  <sodipodi:namedview
     id="base"
     pagecolor="#ffffff"
     bordercolor="#666666"
     borderopacity="1.0"
     inkscape:pageopacity="0.0"
     inkscape:pageshadow="2"
     inkscape:zoom="89.6"
     inkscape:cx="5.2788794"
     inkscape:cy="6.3034298"
     inkscape:document-units="px"
     inkscape:current-layer="layer1"
     showgrid="true"
     inkscape:window-width="1920"
     inkscape:window-height="1151"
     inkscape:window-x="0"
     inkscape:window-y="25"
     inkscape:window-maximized="1"
     fit-margin-top="0"
     fit-margin-left="0"
     fit-margin-right="0"
     fit-margin-bottom="0"
     inkscape:snap-global="true">
    <inkscape:grid
       type="xygrid"
       id="grid2994"
       empspacing="5"
       visible="true"
       enabled="true"
       snapvisiblegridlinesonly="true" />
  </sodipodi:namedview>
  <metadata
     id="metadata7">
    <rdf:RDF>
      <cc:Work
         rdf:about="">
        <dc:format>image/svg+xml</dc:format>
        <dc:type
           rdf:resource="http://purl.org/dc/dcmitype/StillImage" />
        <dc:title />
      </cc:Work>
    </rdf:RDF>
  </metadata>
  <g
     inkscape:label="Layer 1"
     inkscape:groupmode="layer"
     id="layer1"
     transform="translate(4.8596183e-7,-1040.3622)">
    <path
       transform="translate(-4.8596183e-7,1040.3622)"
       style="fill:#339933;fill-opacity:1;stroke:none"
       d="m 3,0 6,0 c 1.662,0 3,1.338 3,3 l 0,6 c 0,1.662 -1.338,3 -3,3 L 3,12 C 1.338,12 0,10.662 0,9 L 0,3 C 0,1.338 1.338,0 3,0 z"
       id="rect4334" />
    <g
       style="font-size:40px;font-style:normal;font-weight:normal;line-height:125%;letter-spacing:0px;word-spacing:0px;fill:#ffffff;fill-opacity:1;stroke:none;font-family:Sans"
       id="text3782" />
    <path
       style="fill:#ffffff;stroke:none"
       d="m 4.363915,1041.4025 c -1.1623094,0.1464 -2.0216578,1.2684 -1.9093739,2.4289 0.064045,1.4221 0.951617,2.6161 1.4204835,3.9257 0.5349173,1.0292 0.7961233,2.2234 1.5027596,3.1456 0.9346551,0.9987 2.5930614,0.457 3.3514252,-0.4884 0.4975074,-0.5374 0.6715815,-1.2568 0.8137957,-1.9387 0.040216,-0.2849 -0.024049,-0.6298 -0.1059587,-0.9083 -0.1726035,-0.1615 -0.3962039,-0.1376 -0.4351201,-0.4367 -0.2287402,-0.8059 -0.5459384,-1.6457 -1.1259872,-2.2569 -0.5879347,-0.054 -0.414911,-1.2323 -1.1011552,-1.064 -0.3242275,0.1875 -1.0706065,0.3744 -0.8373515,0.8824 0.1704745,0.4042 0.5093779,0.7517 0.4680488,1.1841 0.2576565,0.7069 0.7101457,1.3772 1.2315256,1.9007 0.2955294,0.3758 0.6580046,0.8494 0.2780454,1.2952 -0.2855875,0.3798 -0.825548,0.9958 -1.3634288,0.7828 -0.4829568,-0.5209 -0.5894663,-1.3244 -0.946396,-1.9394 -0.5174306,-1.2936 -1.2192961,-2.5421 -1.6340569,-3.8625 -0.1896899,-0.533 0.087877,-1.2312 0.7223213,-1.2258 1.0277472,-0.1675 2.2537824,-0.1801 3.1218492,0.4655 0.401225,0.4069 0.4990277,0.9632 0.7102647,1.4588 0.3497227,0.3902 1.0483241,0.045 0.9086235,-0.4822 0.1020587,-0.7533 -0.040824,-1.5917 -0.6914672,-2.0765 -1.192627,-0.9458 -2.9253873,-1.0314 -4.3791107,-0.7907 z"
       id="path4948"
       inkscape:connector-curvature="0"
       sodipodi:nodetypes="cccccccccccccccccccccccc" />
  </g>
</svg>
