<?xml version="1.0" encoding="UTF-8" standalone="no"?>
<!-- Created with Inkscape (http://www.inkscape.org/) -->

<svg
   xmlns:dc="http://purl.org/dc/elements/1.1/"
   xmlns:cc="http://creativecommons.org/ns#"
   xmlns:rdf="http://www.w3.org/1999/02/22-rdf-syntax-ns#"
   xmlns:svg="http://www.w3.org/2000/svg"
   xmlns="http://www.w3.org/2000/svg"
   xmlns:sodipodi="http://sodipodi.sourceforge.net/DTD/sodipodi-0.dtd"
   xmlns:inkscape="http://www.inkscape.org/namespaces/inkscape"
   width="12"
   height="12"
   id="svg2"
   version="1.1"
   inkscape:version="0.48.4 r9939"
   sodipodi:docname="restaurant.svg">
  <sodipodi:namedview
     id="base"
     pagecolor="#ffffff"
     bordercolor="#666666"
     borderopacity="1.0"
     inkscape:pageopacity="0.0"
     inkscape:pageshadow="2"
     inkscape:zoom="22.4"
     inkscape:cx="-16.984988"
     inkscape:cy="5.9934251"
     inkscape:document-units="px"
     inkscape:current-layer="layer1"
     showgrid="true"
     inkscape:window-width="1920"
     inkscape:window-height="1151"
     inkscape:window-x="0"
     inkscape:window-y="25"
     inkscape:window-maximized="1"
     fit-margin-top="0"
     fit-margin-left="0"
     fit-margin-right="0"
     fit-margin-bottom="0"
     inkscape:snap-global="true">
    <inkscape:grid
       snapvisiblegridlinesonly="true"
       enabled="true"
       visible="true"
       empspacing="5"
       id="grid2994"
       type="xygrid" />
  </sodipodi:namedview>
  <defs
     id="defs4">
    <filter
       id="filter3028"
       x="0"
       y="0"
       width="1"
       height="1"
       inkscape:label="Lightness-Contrast"
       inkscape:menu="Color"
       inkscape:menu-tooltip="Increase or decrease lightness and contrast"
       color-interpolation-filters="sRGB">
      <feFlood
         id="feFlood3030"
         result="result1"
         flood-opacity="0"
         flood-color="rgb(128,128,128)" />
      <feBlend
         id="feBlend3032"
         in2="SourceGraphic"
         mode="normal"
         result="result2" />
      <feComposite
         id="feComposite3034"
         in2="SourceGraphic"
         k2="1"
         operator="arithmetic"
         result="result3" />
      <feComposite
         id="feComposite3036"
         in2="SourceGraphic"
         operator="in" />
    </filter>
    <filter
       id="filter3055"
       inkscape:label="Lightness-Contrast"
       x="0"
       y="0"
       width="1"
       height="1"
       inkscape:menu="Color"
       inkscape:menu-tooltip="Increase or decrease lightness and contrast"
       color-interpolation-filters="sRGB">
      <feColorMatrix
         id="feColorMatrix3057"
         type="saturate"
         values="0"
         result="fbSourceGraphic" />
      <feColorMatrix
         result="fbSourceGraphicAlpha"
         in="fbSourceGraphic"
         values="0 0 0 -1 0 0 0 0 -1 0 0 0 0 -1 0 0 0 0 1 0"
         id="feColorMatrix3079" />
      <feFlood
         id="feFlood3081"
         result="result1"
         flood-opacity="0"
         flood-color="rgb(128,128,128)"
         in="fbSourceGraphic" />
      <feBlend
         id="feBlend3083"
         in2="fbSourceGraphic"
         mode="normal"
         result="result2" />
      <feComposite
         id="feComposite3085"
         in2="fbSourceGraphic"
         k2="1"
         operator="arithmetic"
         result="result3" />
      <feComposite
         id="feComposite3087"
         in2="fbSourceGraphic"
         operator="in" />
    </filter>
  </defs>
  <metadata
     id="metadata7">
    <rdf:RDF>
      <cc:Work
         rdf:about="">
        <dc:format>image/svg+xml</dc:format>
        <dc:type
           rdf:resource="http://purl.org/dc/dcmitype/StillImage" />
        <dc:title></dc:title>
      </cc:Work>
    </rdf:RDF>
  </metadata>
  <g
     transform="translate(4.8596183e-7,-1040.3622)"
     id="layer1"
     inkscape:groupmode="layer"
     inkscape:label="Layer 1">
    <path
       id="rect4334"
       d="m 3,0 6,0 c 1.662,0 3,1.338 3,3 l 0,6 c 0,1.662 -1.338,3 -3,3 L 3,12 C 1.338,12 0,10.662 0,9 L 0,3 C 0,1.338 1.338,0 3,0 z"
       style="fill:#734a08;fill-opacity:1;stroke:none"
       transform="translate(-4.8596183e-7,1040.3622)" />
    <g
       id="text3782"
       style="font-size:40px;font-style:normal;font-weight:normal;line-height:125%;letter-spacing:0px;word-spacing:0px;fill:#ffffff;fill-opacity:1;stroke:none;font-family:Sans" />
    <path
       inkscape:connector-curvature="0"
       id="path3000"
       d=""
       style="fill:#000000" />
    <path
       style="fill:#ffffff"
       d="m 0.93913641,1049.4654 c -0.03757,-0.038 -0.049455,-0.7796 -0.049455,-3.0877 0,-1.6709 0.011256,-3.0673 0.025017,-3.1032 0.020361,-0.053 0.097239,-0.065 0.41314249,-0.065 0.3787086,0 0.3891025,0 0.4283194,0.1057 0.023171,0.061 0.040192,0.6822 0.040192,1.4671 0,1.31 0.0032,1.3657 0.085231,1.4809 l 0.085231,0.1197 4.1390255,0 4.1390262,0 0,-0.7339 c 0,-0.5588 0.01356,-0.7526 0.05683,-0.8117 0.08081,-0.1105 0.558928,-0.141 0.705506,-0.045 l 0.103116,0.067 0,2.2781 c 0,1.7168 -0.01219,2.2902 -0.04945,2.3275 -0.03047,0.03 -0.179899,0.05 -0.389179,0.05 -0.464736,0 -0.468036,-0.01 -0.468036,-0.7716 l 0,-0.5885 -4.2036505,0 -4.2036506,0 0,0.5885 c 0,0.7662 -0.00331,0.7716 -0.4680352,0.7716 -0.2092805,0 -0.35871379,-0.019 -0.38918039,-0.05 z m 1.96994609,-3.6217 c -0.3977874,-0.1802 -0.6181841,-0.5242 -0.6181841,-0.9652 0,-0.3236 0.062415,-0.4883 0.2741783,-0.7234 0.4225061,-0.4691 1.1485966,-0.4581 1.5726551,0.024 0.4723799,0.5367 0.2811704,1.3705 -0.3837983,1.6736 -0.2262405,0.1031 -0.6063192,0.099 -0.844851,-0.01 z m 1.5660659,-0.1749 c 0,-0.4797 0.2449333,-0.8449 0.6857214,-1.0226 0.2378633,-0.096 0.2626508,-0.097 1.6221648,-0.094 1.5608955,0 2.0036948,0.044 2.3486714,0.2147 0.3085248,0.1524 0.3829603,0.2917 0.4052666,0.7582 l 0.017363,0.3633 -2.5395954,0 -2.5395948,0 z"
       id="path3089"
       inkscape:connector-curvature="0"
       sodipodi:nodetypes="cscscsccccscccscsscccssccsccccscscscccs" />
  </g>
</svg>
