<?xml version="1.0" encoding="UTF-8" standalone="no"?>
<!-- Created with Inkscape (http://www.inkscape.org/) -->

<svg
   xmlns:dc="http://purl.org/dc/elements/1.1/"
   xmlns:cc="http://creativecommons.org/ns#"
   xmlns:rdf="http://www.w3.org/1999/02/22-rdf-syntax-ns#"
   xmlns:svg="http://www.w3.org/2000/svg"
   xmlns="http://www.w3.org/2000/svg"
   xmlns:xlink="http://www.w3.org/1999/xlink"
   xmlns:sodipodi="http://sodipodi.sourceforge.net/DTD/sodipodi-0.dtd"
   xmlns:inkscape="http://www.inkscape.org/namespaces/inkscape"
   width="23.443409"
   height="35.879677"
   viewBox="0 0 12.40547 18.986327"
   version="1.1"
   id="svg845"
   inkscape:version="0.92.3 (2405546, 2018-03-11)"
   sodipodi:docname="information.svg">
  <defs
     id="defs839" />
  <sodipodi:namedview
     id="base"
     pagecolor="#ffffff"
     bordercolor="#666666"
     borderopacity="1.0"
     inkscape:pageopacity="0.0"
     inkscape:pageshadow="2"
     inkscape:zoom="15.839192"
     inkscape:cx="8.3301186"
     inkscape:cy="9.8783833"
     inkscape:document-units="mm"
     inkscape:current-layer="layer1"
     showgrid="false"
     fit-margin-top="0"
     fit-margin-left="0"
     fit-margin-right="0"
     fit-margin-bottom="0"
     inkscape:window-width="1869"
     inkscape:window-height="1145"
     inkscape:window-x="51"
     inkscape:window-y="27"
     inkscape:window-maximized="1"
     units="px" />
  <metadata
     id="metadata842">
    <rdf:RDF>
      <cc:Work
         rdf:about="">
        <dc:format>image/svg+xml</dc:format>
        <dc:type
           rdf:resource="http://purl.org/dc/dcmitype/StillImage" />
        <dc:title></dc:title>
      </cc:Work>
    </rdf:RDF>
  </metadata>
  <g
     inkscape:label="Layer 1"
     inkscape:groupmode="layer"
     id="layer1"
     transform="translate(-42.617188,-78.480469)">
    <path
       sodipodi:type="inkscape:offset"
       inkscape:radius="1.5252403"
       inkscape:original="M 48.046875 87.146484 C 46.388505 87.348672 45.491658 87.440148 44.050781 87.513672 L 44.050781 88.064453 L 44.59375 88.101562 C 46.007442 88.193462 46.388672 88.52606 46.388672 89.628906 L 46.388672 93.947266 C 46.388672 94.958208 45.899325 95.380753 44.703125 95.472656 L 44.023438 95.509766 L 44.023438 96.060547 L 51.310547 96.060547 L 51.310547 95.509766 L 50.65625 95.472656 C 49.432864 95.380756 48.972656 94.958208 48.972656 93.947266 L 48.972656 87.146484 L 48.046875 87.146484 z "
       style="opacity:1;fill:#ffffff;fill-opacity:0.87843137;stroke:none;stroke-width:1.67655873;stroke-linecap:square;stroke-linejoin:round;stroke-miterlimit:4;stroke-dasharray:none;stroke-opacity:1;paint-order:stroke fill markers"
       id="rect1474-8"
       d="m 48.046875,85.621094 a 1.5253928,1.5253928 0 0 0 -0.185547,0.01172 c -1.647654,0.200882 -2.479928,0.285538 -3.888672,0.357422 a 1.5253928,1.5253928 0 0 0 -1.447265,1.523438 v 0.550781 a 1.5253928,1.5253928 0 0 0 1.421875,1.521485 l 0.542968,0.03711 a 1.5253928,1.5253928 0 0 0 0.0039,0 c 0.41017,0.02666 0.352467,0.02255 0.36914,0.01563 v 4.289062 c -0.0054,-0.0046 0.03215,-3.4e-4 -0.277343,0.02344 l -0.646485,0.03516 a 1.5253928,1.5253928 0 0 0 -1.441406,1.523438 v 0.550781 a 1.5253928,1.5253928 0 0 0 1.525391,1.525391 h 7.287109 a 1.5253928,1.5253928 0 0 0 1.525391,-1.525391 v -0.550781 a 1.5253928,1.5253928 0 0 0 -1.439454,-1.523438 l -0.626953,-0.03516 c -0.315576,-0.02371 -0.266939,-0.02296 -0.271484,-0.01758 v -6.78711 a 1.5253928,1.5253928 0 0 0 -1.525391,-1.52539 z"
       transform="matrix(1.2,0,0,1.2,-8.3804688,-19.636328)" />
    <path
       sodipodi:type="inkscape:offset"
       inkscape:radius="1.7720093"
       inkscape:original="M 48.884766 80.251953 C 47.77556 80.251953 46.894531 81.132403 46.894531 82.208984 C 46.894531 83.318187 47.774982 84.199219 48.851562 84.199219 C 49.960768 84.199219 50.841797 83.318769 50.841797 82.242188 C 50.841797 81.165607 49.961346 80.251953 48.884766 80.251953 z "
       xlink:href="#rect1466-8"
       style="opacity:1;fill:#ffffff;fill-opacity:0.87878789;stroke:none;stroke-width:2.0389781;stroke-linecap:square;stroke-linejoin:round;stroke-miterlimit:4;stroke-dasharray:none;stroke-opacity:1;paint-order:stroke fill markers"
       id="path1588"
       inkscape:href="#rect1466-8"
       d="m 48.884766,78.480469 c -2.046913,0 -3.761719,1.685175 -3.761719,3.728515 0,2.046914 1.685172,3.761719 3.728515,3.761719 2.046914,0 3.761719,-1.685176 3.761719,-3.728515 0,-2.042706 -1.649376,-3.761719 -3.728515,-3.761719 z" />
    <path
       style="opacity:1;fill:#734a08;fill-opacity:1;stroke:none;stroke-width:2.01187038;stroke-linecap:square;stroke-linejoin:round;stroke-miterlimit:4;stroke-dasharray:none;stroke-opacity:1;paint-order:stroke fill markers"
       d="m 49.275926,84.939327 c -1.990044,0.242625 -3.065732,0.353341 -4.794784,0.44157 v 0.661276 l 0.651516,0.04415 c 1.69643,0.11028 2.153671,0.507482 2.153671,1.830897 v 5.183593 c 0,1.21313 -0.587609,1.720618 -2.023049,1.830901 l -0.815591,0.04414 v 0.661285 H 53.1914 v -0.661281 l -0.783733,-0.04414 c -1.468063,-0.11028 -2.021454,-0.617767 -2.021454,-1.830898 v -8.161491 z"
       id="rect1474"
       inkscape:connector-curvature="0" />
    <path
       style="opacity:1;fill:#734a08;fill-opacity:1;stroke:none;stroke-width:2.44677377;stroke-linecap:square;stroke-linejoin:round;stroke-miterlimit:4;stroke-dasharray:none;stroke-opacity:1;paint-order:stroke fill markers"
       d="m 48.885653,80.251329 c -1.109206,0 -1.99119,0.881156 -1.99119,1.957737 0,1.109203 0.881157,1.989597 1.957737,1.989597 1.109205,0 1.989597,-0.879564 1.989597,-1.956146 0,-1.07658 -0.879564,-1.991188 -1.956144,-1.991188 z"
       id="rect1466"
       inkscape:connector-curvature="0" />
    <path
       style="opacity:1;fill:#734a08;fill-opacity:1;stroke:none;stroke-width:2.44677377;stroke-linecap:square;stroke-linejoin:round;stroke-miterlimit:4;stroke-dasharray:none;stroke-opacity:1;paint-order:stroke fill markers"
       d="m 48.885653,80.251329 c -1.109206,0 -1.99119,0.881156 -1.99119,1.957737 0,1.109203 0.881157,1.989597 1.957737,1.989597 1.109205,0 1.989597,-0.879564 1.989597,-1.956146 0,-1.07658 -0.879564,-1.991188 -1.956144,-1.991188 z"
       id="rect1466-8"
       inkscape:connector-curvature="0" />
  </g>
</svg>
