<?xml version="1.0" encoding="UTF-8" standalone="no"?>
<!-- Created with Inkscape (http://www.inkscape.org/) -->

<svg
   xmlns:dc="http://purl.org/dc/elements/1.1/"
   xmlns:cc="http://creativecommons.org/ns#"
   xmlns:rdf="http://www.w3.org/1999/02/22-rdf-syntax-ns#"
   xmlns:svg="http://www.w3.org/2000/svg"
   xmlns="http://www.w3.org/2000/svg"
   xmlns:sodipodi="http://sodipodi.sourceforge.net/DTD/sodipodi-0.dtd"
   xmlns:inkscape="http://www.inkscape.org/namespaces/inkscape"
   width="12"
   height="12"
   id="svg2"
   version="1.1"
   inkscape:version="0.48.4 r9939"
   sodipodi:docname="parking.svg">
  <defs
     id="defs4" />
  <sodipodi:namedview
     id="base"
     pagecolor="#ffffff"
     bordercolor="#666666"
     borderopacity="1.0"
     inkscape:pageopacity="0.0"
     inkscape:pageshadow="2"
     inkscape:zoom="44.8"
     inkscape:cx="6.8191964"
     inkscape:cy="8.2456753"
     inkscape:document-units="px"
     inkscape:current-layer="layer1"
     showgrid="true"
     inkscape:window-width="1920"
     inkscape:window-height="1151"
     inkscape:window-x="0"
     inkscape:window-y="25"
     inkscape:window-maximized="1"
     fit-margin-top="0"
     fit-margin-left="0"
     fit-margin-right="0"
     fit-margin-bottom="0"
     inkscape:snap-global="true">
    <inkscape:grid
       type="xygrid"
       id="grid2994"
       empspacing="5"
       visible="true"
       enabled="true"
       snapvisiblegridlinesonly="true" />
  </sodipodi:namedview>
  <metadata
     id="metadata7">
    <rdf:RDF>
      <cc:Work
         rdf:about="">
        <dc:format>image/svg+xml</dc:format>
        <dc:type
           rdf:resource="http://purl.org/dc/dcmitype/StillImage" />
        <dc:title />
      </cc:Work>
    </rdf:RDF>
  </metadata>
  <g
     inkscape:label="Layer 1"
     inkscape:groupmode="layer"
     id="layer1"
     transform="translate(4.8596183e-7,-1040.3622)">
    <path
       transform="translate(-4.8596183e-7,1040.3622)"
       style="fill:#0092da;fill-opacity:1;stroke:none"
       d="m 3,0 6,0 c 1.662,0 3,1.338 3,3 l 0,6 c 0,1.662 -1.338,3 -3,3 L 3,12 C 1.338,12 0,10.662 0,9 L 0,3 C 0,1.338 1.338,0 3,0 z"
       id="rect4334" />
    <g
       style="font-size:40px;font-style:normal;font-weight:normal;line-height:125%;letter-spacing:0px;word-spacing:0px;fill:#ffffff;fill-opacity:1;stroke:none;font-family:Sans"
       id="text3782" />
    <g
       style="font-size:10px;font-style:normal;font-variant:normal;font-weight:normal;font-stretch:normal;line-height:125%;letter-spacing:0px;word-spacing:0px;fill:#ffffff;fill-opacity:1;stroke:none;font-family:Verdana;-inkscape-font-specification:Verdana"
       id="text4336">
      <path
         d="m 9.6005855,1044.7538 c -8.4e-6,0.3906 -0.068368,0.7734 -0.2050782,1.1484 -0.1367267,0.3711 -0.332039,0.6836 -0.5859375,0.9375 -0.3476634,0.3438 -0.7363349,0.6035 -1.1660156,0.7793 -0.4257872,0.1758 -0.9570366,0.2637 -1.59375,0.2637 l -1.4003906,0 0,2.8418 -2.25,0 0,-8.7246 3.703125,0 c 0.5546821,0 1.0214785,0.049 1.4003906,0.1465 0.3828059,0.094 0.7206962,0.2363 1.0136719,0.4277 0.3515549,0.2305 0.6191328,0.5254 0.8027344,0.8848 0.1874917,0.3593 0.2812416,0.791 0.28125,1.2949 m -2.3261719,0.053 c -6e-6,-0.2461 -0.066412,-0.457 -0.1992188,-0.6328 -0.1328181,-0.1797 -0.2871148,-0.3047 -0.4628906,-0.375 -0.2343801,-0.094 -0.4628955,-0.1445 -0.6855469,-0.1523 -0.2226606,-0.012 -0.5195353,-0.018 -0.890625,-0.018 l -0.3867187,0 0,2.6133 0.6445312,0 c 0.3828081,0 0.697261,-0.024 0.9433594,-0.07 0.2499948,-0.047 0.458979,-0.1407 0.6269531,-0.2813 0.1445256,-0.125 0.2480411,-0.2734 0.3105469,-0.4453 0.0664,-0.1758 0.099603,-0.3887 0.099609,-0.6387"
         style="font-size:12px;font-weight:bold;fill:#ffffff;-inkscape-font-specification:Verdana Bold"
         id="path4342" />
    </g>
  </g>
</svg>
