<?xml version="1.0" encoding="UTF-8" standalone="no"?>
<!-- Created with Inkscape (http://www.inkscape.org/) -->

<svg
   xmlns:dc="http://purl.org/dc/elements/1.1/"
   xmlns:cc="http://creativecommons.org/ns#"
   xmlns:rdf="http://www.w3.org/1999/02/22-rdf-syntax-ns#"
   xmlns:svg="http://www.w3.org/2000/svg"
   xmlns="http://www.w3.org/2000/svg"
   xmlns:sodipodi="http://sodipodi.sourceforge.net/DTD/sodipodi-0.dtd"
   xmlns:inkscape="http://www.inkscape.org/namespaces/inkscape"
   width="12"
   height="12"
   id="svg2"
   version="1.1"
   inkscape:version="0.48.4 r9939"
   sodipodi:docname="shop.svg">
  <sodipodi:namedview
     id="base"
     pagecolor="#ffffff"
     bordercolor="#666666"
     borderopacity="1.0"
     inkscape:pageopacity="0.0"
     inkscape:pageshadow="2"
     inkscape:zoom="22.627417"
     inkscape:cx="-2.2567372"
     inkscape:cy="8.1958946"
     inkscape:document-units="px"
     inkscape:current-layer="layer1"
     showgrid="true"
     inkscape:window-width="1920"
     inkscape:window-height="1151"
     inkscape:window-x="0"
     inkscape:window-y="25"
     inkscape:window-maximized="1"
     fit-margin-top="0"
     fit-margin-left="0"
     fit-margin-right="0"
     fit-margin-bottom="0"
     inkscape:snap-global="true">
    <inkscape:grid
       snapvisiblegridlinesonly="true"
       enabled="true"
       visible="true"
       empspacing="5"
       id="grid2994"
       type="xygrid" />
  </sodipodi:namedview>
  <defs
     id="defs4">
    <filter
       id="filter3028"
       x="0"
       y="0"
       width="1"
       height="1"
       inkscape:label="Lightness-Contrast"
       inkscape:menu="Color"
       inkscape:menu-tooltip="Increase or decrease lightness and contrast"
       color-interpolation-filters="sRGB">
      <feFlood
         id="feFlood3030"
         result="result1"
         flood-opacity="0"
         flood-color="rgb(128,128,128)" />
      <feBlend
         id="feBlend3032"
         in2="SourceGraphic"
         mode="normal"
         result="result2" />
      <feComposite
         id="feComposite3034"
         in2="SourceGraphic"
         k2="1"
         operator="arithmetic"
         result="result3" />
      <feComposite
         id="feComposite3036"
         in2="SourceGraphic"
         operator="in" />
    </filter>
    <filter
       id="filter3055"
       inkscape:label="Lightness-Contrast"
       x="0"
       y="0"
       width="1"
       height="1"
       inkscape:menu="Color"
       inkscape:menu-tooltip="Increase or decrease lightness and contrast"
       color-interpolation-filters="sRGB">
      <feColorMatrix
         id="feColorMatrix3057"
         type="saturate"
         values="0"
         result="fbSourceGraphic" />
      <feColorMatrix
         result="fbSourceGraphicAlpha"
         in="fbSourceGraphic"
         values="0 0 0 -1 0 0 0 0 -1 0 0 0 0 -1 0 0 0 0 1 0"
         id="feColorMatrix3079" />
      <feFlood
         id="feFlood3081"
         result="result1"
         flood-opacity="0"
         flood-color="rgb(128,128,128)"
         in="fbSourceGraphic" />
      <feBlend
         id="feBlend3083"
         in2="fbSourceGraphic"
         mode="normal"
         result="result2" />
      <feComposite
         id="feComposite3085"
         in2="fbSourceGraphic"
         k2="1"
         operator="arithmetic"
         result="result3" />
      <feComposite
         id="feComposite3087"
         in2="fbSourceGraphic"
         operator="in" />
    </filter>
    <inkscape:perspective
       id="perspective12"
       inkscape:persp3d-origin="290 : 193.33333 : 1"
       inkscape:vp_z="580 : 290 : 1"
       inkscape:vp_y="0 : 1000 : 0"
       inkscape:vp_x="0 : 290 : 1"
       sodipodi:type="inkscape:persp3d" />
    <inkscape:perspective
       id="perspective12-1"
       inkscape:persp3d-origin="290 : 193.33333 : 1"
       inkscape:vp_z="580 : 290 : 1"
       inkscape:vp_y="0 : 1000 : 0"
       inkscape:vp_x="0 : 290 : 1"
       sodipodi:type="inkscape:persp3d" />
    <inkscape:perspective
       sodipodi:type="inkscape:persp3d"
       inkscape:vp_x="0 : 526.18109 : 1"
       inkscape:vp_y="0 : 1000 : 0"
       inkscape:vp_z="744.09448 : 526.18109 : 1"
       inkscape:persp3d-origin="372.04724 : 350.78739 : 1"
       id="perspective2466" />
    <inkscape:perspective
       id="perspective2441"
       inkscape:persp3d-origin="290 : 193.33333 : 1"
       inkscape:vp_z="580 : 290 : 1"
       inkscape:vp_y="0 : 1000 : 0"
       inkscape:vp_x="0 : 290 : 1"
       sodipodi:type="inkscape:persp3d" />
    <filter
       id="filter3871"
       x="0"
       y="0"
       width="1"
       height="1"
       inkscape:label="Lightness-Contrast"
       inkscape:menu="Color"
       inkscape:menu-tooltip="Increase or decrease lightness and contrast"
       color-interpolation-filters="sRGB">
      <feFlood
         id="feFlood3873"
         result="result1"
         flood-opacity="0"
         flood-color="rgb(128,128,128)" />
      <feBlend
         id="feBlend3875"
         in2="SourceGraphic"
         mode="normal"
         result="result2" />
      <feComposite
         id="feComposite3877"
         in2="SourceGraphic"
         k2="1"
         operator="arithmetic"
         result="result3" />
      <feComposite
         id="feComposite3879"
         in2="SourceGraphic"
         operator="in" />
    </filter>
  </defs>
  <metadata
     id="metadata7">
    <rdf:RDF>
      <cc:Work
         rdf:about="">
        <dc:format>image/svg+xml</dc:format>
        <dc:type
           rdf:resource="http://purl.org/dc/dcmitype/StillImage" />
        <dc:title></dc:title>
      </cc:Work>
    </rdf:RDF>
  </metadata>
  <g
     transform="translate(4.8596183e-7,-1040.3622)"
     id="layer1"
     inkscape:groupmode="layer"
     inkscape:label="Layer 1">
    <path
       id="rect4334"
       d="m 3,0 6,0 c 1.662,0 3,1.338 3,3 l 0,6 c 0,1.662 -1.338,3 -3,3 L 3,12 C 1.338,12 0,10.662 0,9 L 0,3 C 0,1.338 1.338,0 3,0 z"
       style="fill:#bf40bf;fill-opacity:1;stroke:none"
       transform="translate(-4.8596183e-7,1040.3622)" />
    <g
       id="text3782"
       style="font-size:40px;font-style:normal;font-weight:normal;line-height:125%;letter-spacing:0px;word-spacing:0px;fill:#ffffff;fill-opacity:1;stroke:none;font-family:Sans" />
    <path
       inkscape:connector-curvature="0"
       id="path3000"
       d=""
       style="fill:#000000" />
    <path
       style="fill:#ffffff"
       d="m 3.771007,1050.6647 c -0.2644245,-0.095 -0.3282774,-0.157 -0.42595,-0.4128 -0.1090581,-0.2856 -0.037629,-0.5841 0.1844833,-0.771 l 0.1554253,-0.1308 -0.8520017,-3.0714 c -0.4686013,-1.6892 -0.8520017,-3.0779 -0.8520017,-3.086 0,-0.01 -0.2002284,-0.069 -0.4449509,-0.1343 -0.54231711,-0.1457 -0.74015057,-0.2919 -0.74015057,-0.547 0,-0.2446 0.0797991,-0.3741 0.28278477,-0.4589 0.1521961,-0.064 0.2167898,-0.06 0.5755215,0.033 0.7653719,0.1988 0.9556931,0.2637 1.0502087,0.3582 0.086867,0.087 0.1980481,0.4025 0.3668644,1.0414 l 0.064668,0.2448 3.7945585,0 c 2.5729202,0 3.8457054,0.018 3.9534254,0.055 0.205824,0.072 0.320246,0.2514 0.320246,0.5026 0,0.3295 -0.267455,0.5241 -0.720232,0.5241 -0.140099,0 -0.141939,0.01 -0.5591457,1.4814 -0.613257,2.1703 -0.5582362,2.0133 -0.745733,2.1276 -0.1566981,0.096 -0.2750902,0.1005 -2.4224907,0.1007 -2.1260327,0 -2.2561784,0.01 -2.2309526,0.09 0.014734,0.049 0.041382,0.1515 0.059219,0.2264 0.032274,0.1356 0.035443,0.1364 0.6594053,0.1706 2.1534918,0.1179 3.7559184,0.2535 3.9736465,0.3363 0.337792,0.1284 0.5216651,0.6335 0.3522887,0.9678 -0.1329843,0.2624 -0.4916565,0.4458 -0.7701743,0.3938 -0.2549605,-0.048 -0.5133112,-0.3026 -0.5602539,-0.5528 l -0.035561,-0.1895 -1.7461544,0 -1.7461544,0 -2.015e-4,0.1159 c -2.566e-4,0.1504 -0.1686673,0.4247 -0.319386,0.5203 -0.184225,0.1167 -0.4095395,0.1398 -0.621262,0.064 z m 1.3503837,-3.3148 c -0.00147,-0.021 -0.1250256,-0.5835 -0.2745759,-1.2495 l -0.2719103,-1.2109 -0.5560481,-0.014 c -0.4361172,-0.012 -0.5506586,0 -0.5310598,0.052 0.01374,0.036 0.133794,0.4488 0.2667782,0.9164 0.1329844,0.4676 0.2878221,1.0067 0.3440829,1.198 l 0.1022922,0.3478 0.4615537,0 c 0.2538543,0 0.4603537,-0.018 0.4588871,-0.039 z m 1.8457294,-1.1851 c 0.1209711,-0.673 0.219505,-1.2411 0.218965,-1.2624 -5.497e-4,-0.021 -0.3619398,-0.038 -0.8031102,-0.038 -0.7396072,0 -0.8000758,0.01 -0.7758054,0.09 0.014477,0.05 0.1092116,0.554 0.2105224,1.1208 0.1013106,0.5667 0.1972112,1.0942 0.2131121,1.1722 0.028061,0.1375 0.039023,0.1417 0.3726402,0.1417 l 0.3437284,0 z m 1.9868295,0 c 0.1890484,-0.6733 0.3437252,-1.2414 0.3437252,-1.2624 0,-0.021 -0.2395899,-0.038 -0.5324211,-0.038 l -0.5324207,0 -0.2663846,1.198 c -0.1465113,0.6589 -0.2663174,1.2269 -0.2662344,1.2623 1.03e-4,0.047 0.1255666,0.064 0.4550805,0.064 l 0.4549299,0 z"
       id="path3993"
       inkscape:connector-curvature="0"
       sodipodi:nodetypes="csccsscscscccscsscccccccscsccccccccsccccscsccscscssscsssscscscs" />
  </g>
</svg>
