<?xml version="1.0" encoding="UTF-8" standalone="no"?>
<!-- Created with Inkscape (http://www.inkscape.org/) -->

<svg
   xmlns:dc="http://purl.org/dc/elements/1.1/"
   xmlns:cc="http://creativecommons.org/ns#"
   xmlns:rdf="http://www.w3.org/1999/02/22-rdf-syntax-ns#"
   xmlns:svg="http://www.w3.org/2000/svg"
   xmlns="http://www.w3.org/2000/svg"
   xmlns:sodipodi="http://sodipodi.sourceforge.net/DTD/sodipodi-0.dtd"
   xmlns:inkscape="http://www.inkscape.org/namespaces/inkscape"
   width="12.996681"
   height="11.821083"
   id="svg2"
   version="1.1"
   inkscape:version="0.48.4 r9939"
   sodipodi:docname="viewpoint.svg">
  <sodipodi:namedview
     id="base"
     pagecolor="#ffffff"
     bordercolor="#666666"
     borderopacity="1.0"
     inkscape:pageopacity="0.0"
     inkscape:pageshadow="2"
     inkscape:zoom="45.254834"
     inkscape:cx="5.3402906"
     inkscape:cy="4.5376181"
     inkscape:document-units="px"
     inkscape:current-layer="layer1"
     showgrid="true"
     inkscape:window-width="1920"
     inkscape:window-height="1151"
     inkscape:window-x="0"
     inkscape:window-y="25"
     inkscape:window-maximized="1"
     fit-margin-top="0"
     fit-margin-left="0"
     fit-margin-right="0"
     fit-margin-bottom="0"
     inkscape:snap-global="true">
    <inkscape:grid
       snapvisiblegridlinesonly="true"
       enabled="true"
       visible="true"
       empspacing="5"
       id="grid2994"
       type="xygrid"
       originx="0.49531752px"
       originy="-0.10459863px" />
  </sodipodi:namedview>
  <defs
     id="defs4">
    <filter
       id="filter3028"
       x="0"
       y="0"
       width="1"
       height="1"
       inkscape:label="Lightness-Contrast"
       inkscape:menu="Color"
       inkscape:menu-tooltip="Increase or decrease lightness and contrast"
       color-interpolation-filters="sRGB">
      <feFlood
         id="feFlood3030"
         result="result1"
         flood-opacity="0"
         flood-color="rgb(128,128,128)" />
      <feBlend
         id="feBlend3032"
         in2="SourceGraphic"
         mode="normal"
         result="result2" />
      <feComposite
         id="feComposite3034"
         in2="SourceGraphic"
         k2="1"
         operator="arithmetic"
         result="result3"
         k1="0"
         k3="0"
         k4="0" />
      <feComposite
         id="feComposite3036"
         in2="SourceGraphic"
         operator="in" />
    </filter>
    <filter
       id="filter3055"
       inkscape:label="Lightness-Contrast"
       x="0"
       y="0"
       width="1"
       height="1"
       inkscape:menu="Color"
       inkscape:menu-tooltip="Increase or decrease lightness and contrast"
       color-interpolation-filters="sRGB">
      <feColorMatrix
         id="feColorMatrix3057"
         type="saturate"
         values="0"
         result="fbSourceGraphic" />
      <feColorMatrix
         result="fbSourceGraphicAlpha"
         in="fbSourceGraphic"
         values="0 0 0 -1 0 0 0 0 -1 0 0 0 0 -1 0 0 0 0 1 0"
         id="feColorMatrix3079" />
      <feFlood
         id="feFlood3081"
         result="result1"
         flood-opacity="0"
         flood-color="rgb(128,128,128)"
         in="fbSourceGraphic" />
      <feBlend
         id="feBlend3083"
         in2="fbSourceGraphic"
         mode="normal"
         result="result2" />
      <feComposite
         id="feComposite3085"
         in2="fbSourceGraphic"
         k2="1"
         operator="arithmetic"
         result="result3"
         k1="0"
         k3="0"
         k4="0" />
      <feComposite
         id="feComposite3087"
         in2="fbSourceGraphic"
         operator="in" />
    </filter>
    <inkscape:perspective
       id="perspective12"
       inkscape:persp3d-origin="290 : 193.33333 : 1"
       inkscape:vp_z="580 : 290 : 1"
       inkscape:vp_y="0 : 1000 : 0"
       inkscape:vp_x="0 : 290 : 1"
       sodipodi:type="inkscape:persp3d" />
    <inkscape:perspective
       id="perspective12-1"
       inkscape:persp3d-origin="290 : 193.33333 : 1"
       inkscape:vp_z="580 : 290 : 1"
       inkscape:vp_y="0 : 1000 : 0"
       inkscape:vp_x="0 : 290 : 1"
       sodipodi:type="inkscape:persp3d" />
    <inkscape:perspective
       id="perspective3579"
       inkscape:persp3d-origin="290 : 193.33333 : 1"
       inkscape:vp_z="580 : 290 : 1"
       inkscape:vp_y="0 : 1000 : 0"
       inkscape:vp_x="0 : 290 : 1"
       sodipodi:type="inkscape:persp3d" />
  </defs>
  <metadata
     id="metadata7">
    <rdf:RDF>
      <cc:Work
         rdf:about="">
        <dc:format>image/svg+xml</dc:format>
        <dc:type
           rdf:resource="http://purl.org/dc/dcmitype/StillImage" />
        <dc:title />
      </cc:Work>
    </rdf:RDF>
  </metadata>
  <g
     transform="translate(0.495318,-1040.4365)"
     id="layer1"
     inkscape:groupmode="layer"
     inkscape:label="Layer 1">
    <path
       style="font-size:medium;font-style:normal;font-variant:normal;font-weight:normal;font-stretch:normal;text-indent:0;text-align:start;text-decoration:none;line-height:normal;letter-spacing:normal;word-spacing:normal;text-transform:none;direction:ltr;block-progression:tb;writing-mode:lr-tb;text-anchor:start;baseline-shift:baseline;color:#000000;fill:#ffffff;fill-opacity:1;fill-rule:nonzero;stroke:none;stroke-width:13.05850983;marker:none;visibility:visible;display:inline;overflow:visible;enable-background:accumulate;font-family:Sans;-inkscape-font-specification:Sans"
       d="M 8.96875 0 C 8.4334668 -0.0176 7.9698442 0.31845 7.71875 0.65625 C 7.4676558 0.99405 7.3438926 1.35145 7.25 1.65625 A 0.51945099 0.51945099 0 0 0 7.25 1.6875 C 6.9817265 2.6564 6.6152883 3.66905 6.53125 4.78125 A 0.51945099 0.51945099 0 0 0 6.8125 5.28125 C 7.0424248 5.40825 7.3599749 5.4043 7.5625 5.3125 C 7.7650251 5.2206 7.8984643 5.07905 8 4.96875 C 8.2030713 4.74815 8.3604659 4.56945 8.3125 4.59375 A 0.51945099 0.51945099 0 0 0 8.46875 4.5 C 9.0289389 3.9311 9.7530979 3.4105 10.3125 2.625 L 10.28125 2.625 C 10.28719 2.6174 10.275463 2.60145 10.28125 2.59375 C 10.828385 1.86645 10.706977 0.76365 9.875 0.28125 C 9.8654991 0.27485 9.8533097 0.28735 9.84375 0.28125 C 9.5493773 0.09275 9.2545368 0.009 8.96875 0 z M 7.5625 5.3125 C 7.5494432 5.3203 7.5443846 5.33525 7.53125 5.34375 C 7.367664 5.45015 7.1851648 5.623 7.125 5.875 A 0.51945099 0.51945099 0 0 0 7.21875 6.40625 L 7.1875 6.40625 L 7.125 6.40625 A 0.51945099 0.51945099 0 0 0 6.71875 6.625 C 6.5623922 6.8247 6.5238957 7.0535 6.53125 7.25 C 6.5386043 7.4466 6.5782245 7.63725 6.625 7.78125 C 6.718551 8.06925 6.7809098 8.29485 6.78125 8.34375 A 0.51945099 0.51945099 0 0 0 6.8125 8.5 C 7.0508016 9.2725 7.1112258 10.31575 7.75 11.21875 C 7.7586349 11.23195 7.7722291 11.2373 7.78125 11.25 C 8.0902806 11.6861 8.6218162 11.8609 9.0625 11.8125 C 9.5013665 11.7642 9.8891159 11.551 10.1875 11.25 L 10.1875 11.21875 L 10.21875 11.21875 C 10.577846 10.86145 10.674765 10.3465 10.59375 9.9375 C 10.51028 9.516 10.297044 9.152 10.03125 8.875 C 9.2566798 8.0812 8.4887829 7.24585 7.53125 6.53125 C 8.0189134 6.79805 8.5282521 6.8838 8.84375 7 A 0.51945099 0.51945099 0 0 0 8.90625 7 C 9.7119326 7.1812 10.748718 7.75605 11.9375 7.46875 A 0.51945099 0.51945099 0 0 0 11.96875 7.46875 C 12.549641 7.29535 12.883212 6.77935 12.96875 6.28125 C 13.054288 5.78315 12.943975 5.25655 12.625 4.84375 A 0.51945099 0.51945099 0 0 0 12.59375 4.8125 C 12.136041 4.2943 11.491761 4.2892 11.0625 4.3125 A 0.51945099 0.51945099 0 0 0 11 4.34375 C 10.214758 4.49905 9.453011 4.71595 8.71875 4.90625 A 0.51945099 0.51945099 0 0 0 8.59375 4.9375 C 8.5551635 4.9589 8.2914647 5.0393 8 5.125 C 7.8659688 5.1645 7.71206 5.2223 7.5625 5.3125 z M 6.53125 7.25 C 6.5382167 7.1752896 6.5285676 7.1081532 6.53125 7.03125 A 0.51945099 0.51945099 0 0 0 6.5 6.84375 C 6.4568546 6.71415 6.3298135 6.5668 6.21875 6.5 C 6.1076865 6.4333 6.0369028 6.41285 5.96875 6.40625 C 5.8324444 6.39305 5.7337585 6.40555 5.78125 6.40625 A 0.51945099 0.51945099 0 0 0 5.71875 6.40625 A 0.51945099 0.51945099 0 0 0 5.875 6.03125 C 5.8781282 5.76845 5.679612 5.5153 5.5 5.375 C 5.5222533 5.3892 5.5395989 5.39245 5.5625 5.40625 A 0.51945099 0.51945099 0 0 0 6.15625 5.40625 C 6.3857723 5.24405 6.4871273 4.94225 6.5 4.71875 C 6.5128727 4.49525 6.4859924 4.31585 6.4375 4.15625 C 6.3405152 3.83705 6.2500261 3.52935 6.25 3.53125 A 0.51945099 0.51945099 0 0 0 6.21875 3.375 C 5.9818756 2.6085 5.9306215 1.62365 5.34375 0.71875 C 5.0772455 0.33075 4.5942679 0.0186 4.0625 0.0625 C 4.051666 0.0633 4.0421381 0.0613 4.03125 0.0625 C 3.5745063 0.0938 3.1659508 0.2927 2.84375 0.625 C 2.5145914 0.9646 2.29064 1.522 2.46875 2.0625 A 0.51945099 0.51945099 0 0 0 2.46875 2.09375 C 2.8203472 3.07955 3.6394646 3.61575 4.15625 4.15625 A 0.51945099 0.51945099 0 0 0 4.1875 4.21875 C 4.5474623 4.51555 4.9188028 4.98065 5.46875 5.34375 C 5.2920512 5.22515 5.1460347 5.1577 5 5.125 C 4.6917607 5.056 4.4037583 4.9768 4.4375 5 A 0.51945099 0.51945099 0 0 0 4.28125 4.9375 C 3.489272 4.7214 2.6290651 4.3042 1.59375 4.3125 C 1.5828617 4.3125 1.573423 4.3123 1.5625 4.3125 C 0.7400134 4.2804 0.053298 4.96195 0.03125 5.78125 C 0.0303567 5.81445 -0.0013894 5.8413 0 5.875 L 0.03125 5.875 C -0.0393181 6.7539 0.6245172 7.6036 1.5625 7.5625 C 1.5733225 7.562 1.5828623 7.5632 1.59375 7.5625 C 2.4744242 7.5653 3.1657374 7.1887 3.78125 7.0625 A 0.51945099 0.51945099 0 0 0 3.8125 7.0625 C 4.354043 6.926 4.9115178 6.74595 5.4375 6.53125 A 0.51945099 0.51945099 0 0 0 5.4375 6.5625 C 4.6620354 7.2924 3.8562915 8.01065 3.09375 8.78125 C 2.8326374 9.04825 2.6079633 9.3956 2.5 9.8125 C 2.3940538 10.2215 2.4698998 10.737 2.8125 11.125 C 2.816071 11.1293 2.8088935 11.15205 2.8125 11.15625 C 3.0773177 11.46705 3.4271247 11.69585 3.84375 11.78125 C 4.2752355 11.86975 4.8375992 11.7758 5.1875 11.375 C 5.8702959 10.5718 5.965 9.56455 6.1875 8.84375 A 0.51945099 0.51945099 0 0 0 6.1875 8.8125 C 6.2976088 8.334249 6.4782369 7.8185104 6.53125 7.25 z "
       transform="translate(-0.495318,1040.4365)"
       id="path3321" />
    <g
       id="text3782"
       style="font-size:40px;font-style:normal;font-weight:normal;line-height:125%;letter-spacing:0px;word-spacing:0px;fill:#ffffff;fill-opacity:1;stroke:none;font-family:Sans" />
    <path
       inkscape:connector-curvature="0"
       id="path3000"
       d=""
       style="fill:#000000" />
    <path
       style="font-size:medium;font-style:normal;font-variant:normal;font-weight:normal;font-stretch:normal;text-indent:0;text-align:start;text-decoration:none;line-height:normal;letter-spacing:normal;word-spacing:normal;text-transform:none;direction:ltr;block-progression:tb;writing-mode:lr-tb;text-anchor:start;baseline-shift:baseline;color:#000000;fill:#734a08;fill-opacity:1;fill-rule:nonzero;stroke:none;stroke-width:13.05850983;marker:none;visibility:visible;display:inline;overflow:visible;enable-background:accumulate;font-family:Sans;-inkscape-font-specification:Sans"
       d="m 3.5859113,1041.0178 c -0.1809973,0.01 -0.3794964,0.069 -0.5895528,0.1899 -0.3292792,0.1898 -0.5112335,0.4311 -0.5645718,0.6873 -0.053338,0.2561 0.017651,0.5076 0.1299015,0.7287 0.2245001,0.4423 0.6339922,0.8069 0.7315879,0.9093 0.5038561,0.5291 0.995742,0.9917 1.3632518,1.3205 0.1837548,0.1643 0.3368659,0.2952 0.4446627,0.3847 0.053899,0.045 0.096003,0.079 0.1270465,0.1028 0.015522,0.012 0.027569,0.021 0.03997,0.029 0.0062,0 0.01115,0.01 0.024267,0.014 0.00656,0 0.012625,0.01 0.039256,0.014 0.013315,0 0.033599,0.01 0.073516,0 0.039917,-0.012 0.094591,-0.067 0.1042067,-0.1128 0.00866,-0.041 0.00334,-0.039 0.00286,-0.045 -4.865e-4,-0.01 -9.753e-4,-0.01 -0.00143,-0.012 -9.067e-4,-0.01 -0.00175,-0.011 -0.00286,-0.017 -0.0022,-0.012 -0.0054,-0.027 -0.00928,-0.045 -0.00777,-0.037 -0.019413,-0.088 -0.03426,-0.1541 -0.029694,-0.1316 -0.072723,-0.3187 -0.1270465,-0.5475 -0.1086469,-0.4576 -0.2608476,-1.0816 -0.4339565,-1.7586 -0.04609,-0.1803 -0.157167,-0.7317 -0.4339566,-1.1592 -0.1383947,-0.2137 -0.324708,-0.4042 -0.578133,-0.4867 -0.095034,-0.031 -0.1968842,-0.045 -0.3054826,-0.04 z"
       id="use6027"
       inkscape:connector-curvature="0"
       sodipodi:nodetypes="csssssscscsscccccsssssc" />
    <path
       sodipodi:nodetypes="csssssscscsscccccsssssc"
       inkscape:connector-curvature="0"
       id="use6029"
       d="m 0.1698123,1045.7791 c -0.08183839,0.1618 -0.12999245,0.3632 -0.13031817,0.6056 -2.6798e-4,0.38 0.1177268,0.6583 0.31293335,0.8326 0.19512011,0.1742 0.44842,0.2385 0.69602342,0.2518 0.4952931,0.027 1.015792,-0.1456 1.1532709,-0.1789 0.7101421,-0.1718 1.3567084,-0.3665 1.8252124,-0.5204 0.2341654,-0.077 0.4240837,-0.1441 0.5554914,-0.1927 0.065921,-0.024 0.1164175,-0.044 0.1525506,-0.059 0.018153,-0.01 0.031971,-0.013 0.0451,-0.02 0.0031,-0.01 0.014235,0 0.024258,-0.014 0.00328,-0.01 0.014973,-0.01 0.031752,-0.027 0.00666,-0.012 0.02546,-0.024 0.036758,-0.064 0.00957,-0.041 -0.010728,-0.1155 -0.045584,-0.1467 -0.031177,-0.028 -0.032105,-0.022 -0.037541,-0.025 -0.0089,0 -0.00915,0 -0.011107,0 -0.00911,0 -0.010401,0 -0.016152,-0.01 -0.011492,0 -0.026083,-0.01 -0.043611,-0.014 -0.035928,-0.012 -0.085917,-0.027 -0.1505845,-0.047 -0.1288159,-0.04 -0.3123638,-0.096 -0.5376721,-0.1637 -0.4506167,-0.1347 -1.0671169,-0.3149 -1.7399706,-0.5035 -0.1791893,-0.05 -0.7122543,-0.2297 -1.2208749,-0.2038 -0.25426699,0.013 -0.51240148,0.079 -0.71056107,0.2573 -0.0743638,0.067 -0.13741325,0.1481 -0.18738232,0.2446 z"
       style="font-size:medium;font-style:normal;font-variant:normal;font-weight:normal;font-stretch:normal;text-indent:0;text-align:start;text-decoration:none;line-height:normal;letter-spacing:normal;word-spacing:normal;text-transform:none;direction:ltr;block-progression:tb;writing-mode:lr-tb;text-anchor:start;baseline-shift:baseline;color:#000000;fill:#734a08;fill-opacity:1;fill-rule:nonzero;stroke:none;stroke-width:13.05850983;marker:none;visibility:visible;display:inline;overflow:visible;enable-background:accumulate;font-family:Sans;-inkscape-font-specification:Sans" />
    <path
       style="font-size:medium;font-style:normal;font-variant:normal;font-weight:normal;font-stretch:normal;text-indent:0;text-align:start;text-decoration:none;line-height:normal;letter-spacing:normal;word-spacing:normal;text-transform:none;direction:ltr;block-progression:tb;writing-mode:lr-tb;text-anchor:start;baseline-shift:baseline;color:#000000;fill:#734a08;fill-opacity:1;fill-rule:nonzero;stroke:none;stroke-width:13.05850983;marker:none;visibility:visible;display:inline;overflow:visible;enable-background:accumulate;font-family:Sans;-inkscape-font-specification:Sans"
       d="m 2.5755495,1051.1642 c 0.099204,0.1517 0.2495442,0.2941 0.4593059,0.4156 0.3289557,0.1903 0.628968,0.2272 0.8775195,0.1453 0.2484216,-0.082 0.430757,-0.2691 0.5660769,-0.4769 0.2710292,-0.4154 0.3818027,-0.9525 0.4217035,-1.0882 0.2062879,-0.7009 0.3609559,-1.3582 0.4619266,-1.8408 0.050399,-0.2413 0.087248,-0.4394 0.1108626,-0.5775 0.012176,-0.069 0.020104,-0.1228 0.02518,-0.1616 4.162e-4,-0.021 0.00473,-0.034 0.00523,-0.049 -0.00711,-0.01 0.00712,-0.012 4.6e-6,-0.028 -0.00702,-0.01 -0.00117,-0.018 -0.00751,-0.041 -0.00706,-0.012 -0.00805,-0.034 -0.037047,-0.064 -0.030722,-0.029 -0.1053899,-0.048 -0.1498379,-0.034 -0.039837,0.013 -0.035105,0.017 -0.040421,0.02 -0.00445,0.01 -0.00457,0.01 -0.00555,0.01 -0.00455,0.01 -0.0052,0.01 -0.016736,0.01 -0.00575,0.01 -0.021702,0.018 -0.03393,0.031 -0.028356,0.025 -0.066341,0.061 -0.1159954,0.1069 -0.099049,0.092 -0.2393204,0.2226 -0.4106044,0.3838 -0.341962,0.3229 -0.8062699,0.7667 -1.3060291,1.2551 -0.1328959,0.1302 -0.5550532,0.502 -0.7869335,0.9555 -0.1158751,0.2267 -0.1877847,0.4832 -0.1324522,0.744 0.020842,0.098 0.059552,0.193 0.1181387,0.2845 z"
       id="use6031"
       inkscape:connector-curvature="0"
       sodipodi:nodetypes="csssssscscsscccccsssssc" />
    <path
       style="font-size:medium;font-style:normal;font-variant:normal;font-weight:normal;font-stretch:normal;text-indent:0;text-align:start;text-decoration:none;line-height:normal;letter-spacing:normal;word-spacing:normal;text-transform:none;direction:ltr;block-progression:tb;writing-mode:lr-tb;text-anchor:start;baseline-shift:baseline;color:#000000;fill:#734a08;fill-opacity:1;fill-rule:nonzero;stroke:none;stroke-width:13.05850983;marker:none;visibility:visible;display:inline;overflow:visible;enable-background:accumulate;font-family:Sans;-inkscape-font-specification:Sans"
       d="m 8.433884,1051.7568 c 0.1810421,-0.01 0.3795367,-0.069 0.5896241,-0.1899 0.3292236,-0.1898 0.5112411,-0.4311 0.5645861,-0.6873 0.053301,-0.2561 -0.017663,-0.5076 -0.1299465,-0.7287 -0.2242639,-0.4424 -0.6339893,-0.8069 -0.7315674,-0.9093 -0.5038542,-0.5291 -0.9957525,-0.9917 -1.3632858,-1.3205 -0.1837667,-0.1643 -0.3368361,-0.2952 -0.4446288,-0.3847 -0.053745,-0.045 -0.096314,-0.079 -0.1273708,-0.1026 -0.017737,-0.011 -0.027244,-0.021 -0.03987,-0.029 -0.01021,0 -0.00712,-0.012 -0.024253,-0.014 -0.0103,0 -0.016147,-0.01 -0.039259,-0.014 -0.013722,2e-4 -0.033515,-0.01 -0.073805,2e-4 -0.040292,0.012 -0.094662,0.067 -0.1042539,0.1128 -0.00866,0.041 -0.003,0.039 -0.00288,0.045 0.00445,0.01 0.00457,0.01 0.00555,0.01 0.00455,0.01 0.0052,0.01 -5.842e-4,0.019 0.00575,0.01 0.00438,0.028 0.00968,0.045 0.00757,0.037 0.019576,0.088 0.034589,0.1539 0.029767,0.1316 0.073043,0.3185 0.1270677,0.5475 0.1086547,0.4576 0.260847,1.0816 0.4339415,1.7586 0.046293,0.1802 0.1572011,0.7317 0.4339414,1.1592 0.1383919,0.2137 0.3246168,0.4043 0.5781089,0.4867 0.095206,0.031 0.196965,0.045 0.305521,0.04 z"
       id="use6033"
       inkscape:connector-curvature="0"
       sodipodi:nodetypes="csssssscscsscccccsssssc" />
    <path
       style="font-size:medium;font-style:normal;font-variant:normal;font-weight:normal;font-stretch:normal;text-indent:0;text-align:start;text-decoration:none;line-height:normal;letter-spacing:normal;word-spacing:normal;text-transform:none;direction:ltr;block-progression:tb;writing-mode:lr-tb;text-anchor:start;baseline-shift:baseline;color:#000000;fill:#734a08;fill-opacity:1;fill-rule:nonzero;stroke:none;stroke-width:13.05850983;marker:none;visibility:visible;display:inline;overflow:visible;enable-background:accumulate;font-family:Sans;-inkscape-font-specification:Sans"
       d="m 11.830195,1046.9757 c 0.08184,-0.1618 0.129993,-0.3632 0.130318,-0.6056 2.68e-4,-0.38 -0.117726,-0.6583 -0.312933,-0.8326 -0.19512,-0.1742 -0.44842,-0.2385 -0.696023,-0.2518 -0.495293,-0.027 -1.0157924,0.1456 -1.1532713,0.1789 -0.7101421,0.1718 -1.3567084,0.3665 -1.8252124,0.5204 -0.2341654,0.077 -0.4240837,0.1441 -0.5554914,0.1927 -0.065921,0.024 -0.1164175,0.044 -0.1525506,0.059 -0.018153,0.01 -0.031971,0.013 -0.0451,0.02 -0.0031,0.01 -0.014235,0 -0.024258,0.014 -0.00328,0.01 -0.014973,0.01 -0.031752,0.027 -0.00666,0.012 -0.02546,0.024 -0.036758,0.064 -0.00957,0.041 0.010728,0.1155 0.045584,0.1467 0.031177,0.028 0.032105,0.022 0.037541,0.025 0.0089,0 0.00915,0 0.011107,0 0.00911,0 0.010401,0 0.016152,0.01 0.011492,0 0.026083,0.01 0.043611,0.014 0.035928,0.012 0.085917,0.027 0.1505845,0.047 0.1288159,0.04 0.3123638,0.096 0.5376721,0.1637 0.4506167,0.1347 1.0671169,0.3149 1.7399706,0.5035 0.1791893,0.05 0.7122545,0.2297 1.2208745,0.2038 0.254267,-0.013 0.512402,-0.079 0.710561,-0.2573 0.07436,-0.067 0.137414,-0.1481 0.187383,-0.2446 z"
       id="use6035"
       inkscape:connector-curvature="0"
       sodipodi:nodetypes="csssssscscsscccccsssssc" />
    <path
       style="font-size:medium;font-style:normal;font-variant:normal;font-weight:normal;font-stretch:normal;text-indent:0;text-align:start;text-decoration:none;line-height:normal;letter-spacing:normal;word-spacing:normal;text-transform:none;direction:ltr;block-progression:tb;writing-mode:lr-tb;text-anchor:start;baseline-shift:baseline;color:#000000;fill:#734a08;fill-opacity:1;fill-rule:nonzero;stroke:none;stroke-width:13.05850983;marker:none;visibility:visible;display:inline;overflow:visible;enable-background:accumulate;font-family:Sans;-inkscape-font-specification:Sans"
       d="m 8.4457968,1040.9593 c -0.106577,0 -0.2072992,0.01 -0.3004864,0.04 -0.2484991,0.082 -0.4306112,0.269 -0.5659993,0.4768 -0.2707763,0.4156 -0.3811664,0.9527 -0.4211092,1.0885 -0.2062134,0.7008 -0.3608369,1.3581 -0.4617926,1.8407 -0.050478,0.2414 -0.087782,0.4387 -0.1113441,0.5767 -0.011781,0.069 -0.019829,0.1232 -0.024981,0.1621 -0.00258,0.019 -0.00465,0.034 -0.00571,0.049 -5.322e-4,0.01 -0.00147,0.014 -7.126e-4,0.029 3.791e-4,0.01 -5.664e-4,0.015 0.00785,0.041 0.00421,0.013 0.00852,0.033 0.038542,0.062 0.030019,0.029 0.1056328,0.049 0.1498863,0.034 0.039816,-0.013 0.035942,-0.017 0.040683,-0.02 0.00474,0 0.00752,-0.01 0.00999,-0.01 0.00495,0 0.00827,-0.01 0.012847,-0.011 0.00916,-0.01 0.020241,-0.018 0.03426,-0.031 0.028038,-0.025 0.067516,-0.061 0.117054,-0.1064 0.099076,-0.091 0.2394207,-0.2225 0.4104031,-0.384 0.3419646,-0.3229 0.8064114,-0.767 1.3061522,-1.2555 0.1330556,-0.13 0.5547634,-0.5015 0.7865463,-0.9549 0.1158913,-0.2268 0.1879913,-0.483 0.1327564,-0.7438 -0.055235,-0.2607 -0.2415418,-0.5067 -0.5774192,-0.7009 -0.2056691,-0.1189 -0.3997907,-0.1773 -0.5774192,-0.1848 z"
       id="use6039"
       inkscape:connector-curvature="0"
       sodipodi:nodetypes="csssssscscscscccsssssscc" />
  </g>
</svg>
